<?xml version="1.0" encoding="utf-8"?>
<!-- Generator: Adobe Illustrator 18.1.0, SVG Export Plug-In . SVG Version: 6.00 Build 0)  -->
<svg version="1.1" id="Capa_1" xmlns="http://www.w3.org/2000/svg" xmlns:xlink="http://www.w3.org/1999/xlink" x="0px" y="0px"
	 viewBox="0 0 260 180" enable-background="new 0 0 260 180" xml:space="preserve">
<pattern  width="227.9" height="292" patternUnits="userSpaceOnUse" id="Nueva_muestra_de_motivo_9" viewBox="233.8 -385.7 227.9 292" overflow="visible">
	<g>
		<polygon fill="none" points="233.8,-385.7 461.7,-385.7 461.7,-93.7 233.8,-93.7 		"/>
		<g>
			<path fill="#64C2CA" d="M604.8,0l-29.2-29.2c-7.5,7.5-26.1,26.1-26.1,26.1L546.5,0l-90.7-90.7l6.1-6.1l84.6,84.6
				c7.2-7.2,24.9-24.9,26.1-26.1l3.1-3.1l29.2,29.2l84.6-84.6l6.1,6.1L604.8,0z"/>
		</g>
		<path fill="#CFD727" d="M321.7-61.5l-6.1-6.1l32.2-32.2l3.1,3.1c1.5,1.5,29.1,29.1,29.1,29.1l-6.1,6.1c0,0-18.5-18.5-26.1-26.1
			L321.7-61.5z"/>
		<polygon fill="#E1388C" points="315.5,-32.3 283.2,-64.6 315.5,-96.7 324.9,-93.7 295.5,-64.6 321.7,-38.4 		"/>
		<polygon fill="#E83E30" points="280.2,-76 260.8,-93.7 270.2,-96.9 286.1,-82.4 		"/>
		<polygon fill="#E1388C" points="380,-32.3 373.8,-38.4 400,-64.6 370.7,-93.6 380,-96.7 412.3,-64.6 		"/>
		<path fill="#64C2CA" d="M376.9,0l-29.2-29.2c-7.5,7.5-26.1,26.1-26.1,26.1L318.6,0l-90.7-90.7l6.1-6.1l84.6,84.6
			c7.2-7.2,24.9-24.9,26.1-26.1l3.1-3.1l29.2,29.2l84.6-84.6l6.1,6.1L376.9,0z"/>
		<polygon fill="#E83E30" points="415.3,-76 409.4,-82.4 425.3,-96.9 434.7,-93.7 		"/>
		<path fill="#64C2CA" d="M149,0l-29.2-29.2c-7.5,7.5-26.1,26.1-26.1,26.1L90.7,0L0-90.7l6.1-6.1l84.6,84.6
			c7.2-7.2,24.9-24.9,26.1-26.1l3.1-3.1L149-12.3l84.6-84.6l6.1,6.1L149,0z"/>
		<polygon fill="#CFD727" points="461.9,-236.7 455.8,-242.8 485,-272 491.1,-265.9 		"/>
		<polygon fill="#CFD727" points="462.1,-265.7 455.9,-271.8 488.5,-304.4 520.7,-272.2 514.6,-266 488.5,-292.1 		"/>
		<polygon fill="#CFD727" points="461.7,-295.2 455.6,-301.4 484.7,-330.5 490.8,-324.3 		"/>
		<polygon fill="#E1388C" points="461.7,-265.3 455.9,-271.8 488.5,-304.4 520.7,-272.2 514.6,-266 488.5,-292.1 		"/>
		<path fill="#CFD727" stroke="#221A16" stroke-width="8.6872" stroke-miterlimit="10" d="M459-268.7"/>
		<polygon fill="#64C2CA" points="543.4,-265.9 455.6,-353.3 461.7,-359.4 549.5,-272 		"/>
		<g>
			<path fill="#64C2CA" d="M604.8-292l-29.2-29.2c-7.5,7.5-26.1,26.1-26.1,26.1l-3.1,3.1l-90.7-90.7l6.1-6.1l84.6,84.6
				c7.2-7.2,24.9-24.9,26.1-26.1l3.1-3.1l29.2,29.2l84.6-84.6l6.1,6.1L604.8-292z"/>
		</g>
		<polygon fill="#CFD727" points="485,-207.4 455.8,-236.6 461.9,-242.8 491.1,-213.6 		"/>
		<polygon fill="#CFD727" points="488.5,-175.1 455.9,-207.6 462.1,-213.8 488.5,-187.4 514.6,-213.4 520.7,-207.3 		"/>
		<polygon fill="#CFD727" points="484.7,-149 455.6,-178.1 461.7,-184.2 490.8,-155.1 		"/>
		<polygon fill="#E1388C" points="488.5,-175.1 455.9,-207.6 461.7,-214.2 488.5,-187.4 514.6,-213.4 520.7,-207.3 		"/>
		<path fill="#CFD727" stroke="#221A16" stroke-width="8.6872" stroke-miterlimit="10" d="M459-210.7"/>
		<polygon fill="#CFD727" points="484.7,-149 455.6,-178.1 461.7,-184.2 490.8,-155.1 		"/>
		<polygon fill="#64C2CA" points="461.7,-120 455.6,-126.2 543.4,-213.6 549.5,-207.4 		"/>
		<g>
			<path fill="#64C2CA" d="M689.4-90.6l-84.6-84.6c-7.2,7.2-24.9,24.9-26.1,26.1l-3.1,3.1l-3.1-3.1c-1.2-1.2-18.8-18.8-26.1-26.1
				l-84.6,84.6l-6.1-6.1l90.7-90.7l3.1,3.1c0,0,18.5,18.5,26.1,26.1c7.5-7.5,26.1-26.1,26.1-26.1l3.1-3.1l90.7,90.7L689.4-90.6z"/>
		</g>
		<polygon fill="#CFD727" points="234,-236.7 227.9,-242.8 257.1,-272 263.3,-265.9 		"/>
		<polygon fill="#A3D5CF" points="234.2,-265.7 228.1,-271.8 260.6,-304.4 292.9,-272.2 286.7,-266 260.6,-292.1 		"/>
		<polygon fill="#CFD727" points="233.9,-295.2 227.7,-301.4 256.8,-330.5 263,-324.3 		"/>
		<path fill="#CFD727" d="M321.7-353.5l-6.1-6.1l32.2-32.2l3.1,3.1c1.5,1.5,29.1,29.1,29.1,29.1l-6.1,6.1c0,0-18.5-18.5-26.1-26.1
			L321.7-353.5z"/>
		<path fill="#E83E30" d="M336.3-338.9l-6.1-6.1l17.6-17.6l3.1,3.1c1.1,1.1,14.5,14.5,14.5,14.5l-6.1,6.1c0,0-7.2-7.2-11.5-11.5
			L336.3-338.9z"/>
		<polygon fill="#E1388C" points="233.8,-265.3 228.1,-271.8 260.6,-304.4 292.9,-272.2 286.7,-266 260.6,-292.1 		"/>
		<path fill="#A3D5CF" stroke="#221A16" stroke-width="8.6872" stroke-miterlimit="10" d="M231.1-268.7"/>
		<polygon fill="#E83E30" points="271.7,-222 254,-239.7 271.7,-257.4 277.8,-251.3 266.3,-239.7 277.8,-228.2 		"/>
		<polygon fill="#E1388C" points="315.5,-324.3 283.2,-356.6 315.5,-388.7 324.9,-385.7 295.5,-356.6 321.7,-330.5 		"/>
		<polygon fill="#E83E30" points="280.2,-368 260.8,-385.7 270.2,-388.9 286.1,-374.4 		"/>
		<path fill="#A3D5CF" stroke="#221A16" stroke-width="8.6872" stroke-miterlimit="10" d="M255.2-385.7"/>
		<path fill="#A3D5CF" stroke="#221A16" stroke-width="8.6872" stroke-miterlimit="10" d="M272.7-385.7"/>
		<polygon fill="#64C2CA" points="315.5,-265.9 227.7,-353.3 233.9,-359.4 321.7,-272 		"/>
		<polygon fill="#A3D5CF" points="461.5,-236.7 432.2,-265.9 438.4,-272 467.6,-242.8 		"/>
		<polygon fill="#A3D5CF" points="461.3,-265.7 434.9,-292.1 408.8,-266 402.6,-272.2 434.9,-304.4 467.4,-271.8 		"/>
		<polygon fill="#CFD727" points="461.7,-295.2 432.5,-324.3 438.7,-330.5 467.8,-301.4 		"/>
		<polygon fill="#CFD727" points="461.5,-236.7 432.2,-265.9 438.4,-272 467.6,-242.8 		"/>
		<polygon fill="#E1388C" points="461.7,-265.3 434.9,-292.1 408.8,-266 402.6,-272.2 434.9,-304.4 467.4,-271.8 		"/>
		<path fill="#A3D5CF" stroke="#221A16" stroke-width="8.6872" stroke-miterlimit="10" d="M464.4-268.7"/>
		<polygon fill="#E83E30" points="423.8,-222 417.7,-228.2 429.2,-239.7 417.7,-251.3 423.8,-257.4 441.5,-239.7 		"/>
		<polygon fill="#E1388C" points="380,-324.3 373.8,-330.5 400,-356.6 370.7,-385.7 380,-388.7 412.3,-356.6 		"/>
		<path fill="#64C2CA" d="M376.9-292l-29.2-29.2c-7.5,7.5-26.1,26.1-26.1,26.1l-3.1,3.1l-90.7-90.7l6.1-6.1l84.6,84.6
			c7.2-7.2,24.9-24.9,26.1-26.1l3.1-3.1l29.2,29.2l84.6-84.6l6.1,6.1L376.9-292z"/>
		<polygon fill="#E83E30" points="415.3,-368 409.4,-374.4 425.3,-388.9 434.7,-385.7 		"/>
		<path fill="#A3D5CF" stroke="#221A16" stroke-width="8.6872" stroke-miterlimit="10" d="M440.3-385.7"/>
		<path fill="#A3D5CF" stroke="#221A16" stroke-width="8.6872" stroke-miterlimit="10" d="M422.8-385.7"/>
		<path fill="#E1388C" d="M347.7-225.2c1.1-1.1,14.5-14.5,14.5-14.5s-13.5-13.5-14.5-14.5c-1,1.1-14.5,14.5-14.5,14.5
			S346.7-226.2,347.7-225.2z"/>
		<polygon fill="#64C2CA" points="380,-265.9 373.8,-272 461.7,-359.5 467.8,-353.3 		"/>
		<polygon fill="#CFD727" points="257.1,-207.4 227.9,-236.6 234,-242.8 263.3,-213.6 		"/>
		<polygon fill="#A3D5CF" points="260.6,-175.1 228.1,-207.6 234.2,-213.8 260.6,-187.4 286.7,-213.4 292.9,-207.3 		"/>
		<polygon fill="#A3D5CF" points="256.8,-149 227.7,-178.1 233.9,-184.2 263,-155.1 		"/>
		<path fill="#E83E30" d="M347.8-116.8l-17.6-17.6l6.1-6.1l11.5,11.5c4.3-4.3,11.5-11.5,11.5-11.5l6.1,6.1c0,0-13.5,13.5-14.5,14.5
			L347.8-116.8z"/>
		<polygon fill="#E1388C" points="260.6,-175.1 228.1,-207.6 233.8,-214.2 260.6,-187.4 286.7,-213.4 292.9,-207.3 		"/>
		<path fill="#A3D5CF" stroke="#221A16" stroke-width="8.6872" stroke-miterlimit="10" d="M231.1-210.7"/>
		<path fill="#CFD727" d="M347.8-198.4l-40.8-41.5l40.8-41.1l3.1,3.1c1.8,1.9,35.2,35.2,35.2,35.2l3.1,3.1l-3.1,3.1
			c-0.3,0.3-33.3,33.3-35.1,35.2L347.8-198.4z M318.7-239.7l29,29c6.7-6.7,22.3-22.3,29-29c-6.6-6.6-22.3-22.3-29-29l-6.3,6.3
			C333.9-254.9,323.7-244.7,318.7-239.7z"/>
		<polygon fill="#CFD727" points="256.8,-149 227.7,-178.1 233.9,-184.2 263,-155.1 		"/>
		<polygon fill="#E1388C" points="315.5,-90.8 283.2,-122.8 315.5,-155.1 321.7,-149 295.5,-122.9 324.8,-93.7 		"/>
		<polygon fill="#E83E30" points="270.2,-90.6 260.8,-93.7 280.2,-111.5 286.1,-105 		"/>
		<path fill="#A3D5CF" stroke="#221A16" stroke-width="8.6872" stroke-miterlimit="10" d="M255.2-93.8"/>
		<path fill="#A3D5CF" stroke="#221A16" stroke-width="8.6872" stroke-miterlimit="10" d="M272.7-93.8"/>
		<polygon fill="#64C2CA" points="233.9,-120 227.7,-126.2 315.5,-213.6 321.7,-207.4 		"/>
		<polygon fill="#CFD727" points="438.4,-207.4 432.2,-213.6 461.5,-242.8 467.6,-236.6 		"/>
		<polygon fill="#A3D5CF" points="434.9,-175.1 402.6,-207.3 408.8,-213.4 434.9,-187.4 461.3,-213.8 467.4,-207.6 		"/>
		<polygon fill="#A3D5CF" points="438.7,-149 432.5,-155.1 461.6,-184.2 467.8,-178.1 		"/>
		<path fill="#CFD727" d="M347.7-87.6l-3.1-3.1c-1.5-1.5-29.1-29.2-29.1-29.2l6.1-6.1c0,0,18.5,18.5,26.1,26.1l26.1-26.1l6.1,6.1
			L347.7-87.6z"/>
		<polygon fill="#E1388C" points="434.9,-175.1 402.6,-207.3 408.8,-213.4 434.9,-187.4 461.7,-214.2 467.4,-207.6 		"/>
		<path fill="#A3D5CF" stroke="#221A16" stroke-width="8.6872" stroke-miterlimit="10" d="M464.4-210.7"/>
		<polygon fill="#CFD727" points="438.7,-149 432.5,-155.1 461.7,-184.3 467.8,-178.1 		"/>
		<polygon fill="#E1388C" points="380,-90.8 370.6,-93.7 400,-122.9 373.8,-149 380,-155.1 412.3,-122.8 		"/>
		<path fill="#64C2CA" d="M461.5-90.6l-84.6-84.6c-7.2,7.2-24.9,24.9-26.1,26.1l-3.1,3.1l-3.1-3.1c-1.2-1.2-18.8-18.8-26.1-26.1
			L234-90.6l-6.1-6.1l90.7-90.7l3.1,3.1c0,0,18.5,18.5,26.1,26.1c7.5-7.5,26.1-26.1,26.1-26.1l3.1-3.1l90.7,90.7L461.5-90.6z"/>
		<path fill="#64C2CA" d="M347.7-175.6l-64.5-64.1l3.1-3.1c0,0,4.1-4.1,10.1-10l51.3-51l64.5,64.1L347.7-175.6z M295.5-239.7
			l52.2,51.8l52.2-51.8l-52.2-51.8L295.5-239.7z"/>
		<polygon fill="#E83E30" points="425.3,-90.6 409.4,-105 415.3,-111.5 434.7,-93.7 		"/>
		<path fill="#A3D5CF" stroke="#221A16" stroke-width="8.6872" stroke-miterlimit="10" d="M440.3-93.8"/>
		<path fill="#A3D5CF" stroke="#221A16" stroke-width="8.6872" stroke-miterlimit="10" d="M422.8-93.8"/>
		<polygon fill="#64C2CA" points="461.7,-120 373.8,-207.4 380,-213.6 467.8,-126.2 		"/>
		<polygon fill="#A3D5CF" points="233.6,-236.7 204.4,-265.9 210.5,-272 239.7,-242.8 		"/>
		<polygon fill="#A3D5CF" points="233.4,-265.7 207,-292.1 180.9,-266 174.8,-272.2 207,-304.4 239.6,-271.8 		"/>
		<polygon fill="#CFD727" points="233.8,-295.2 204.7,-324.3 210.8,-330.5 239.9,-301.4 		"/>
		<polygon fill="#CFD727" points="233.6,-236.7 204.4,-265.9 210.5,-272 239.7,-242.8 		"/>
		<polygon fill="#E1388C" points="233.8,-265.3 207,-292.1 180.9,-266 174.8,-272.2 207,-304.4 239.6,-271.8 		"/>
		<path fill="#A3D5CF" stroke="#221A16" stroke-width="8.6872" stroke-miterlimit="10" d="M236.5-268.7"/>
		<path fill="#64C2CA" d="M149-292l-29.2-29.2c-7.5,7.5-26.1,26.1-26.1,26.1l-3.1,3.1L0-382.8l6.1-6.1l84.6,84.6
			c7.2-7.2,24.9-24.9,26.1-26.1l3.1-3.1l29.2,29.2l84.6-84.6l6.1,6.1L149-292z"/>
		<polygon fill="#64C2CA" points="152.1,-265.9 146,-272 233.8,-359.5 239.9,-353.3 		"/>
		<polygon fill="#CFD727" points="210.5,-207.4 204.4,-213.6 233.6,-242.8 239.7,-236.6 		"/>
		<polygon fill="#A3D5CF" points="207,-175.1 174.8,-207.3 180.9,-213.4 207,-187.4 233.4,-213.8 239.6,-207.6 		"/>
		<polygon fill="#A3D5CF" points="210.8,-149 204.7,-155.1 233.8,-184.2 239.9,-178.1 		"/>
		<polygon fill="#E1388C" points="207,-175.1 174.8,-207.3 180.9,-213.4 207,-187.4 233.8,-214.2 239.6,-207.6 		"/>
		<path fill="#A3D5CF" stroke="#221A16" stroke-width="8.6872" stroke-miterlimit="10" d="M236.5-210.7"/>
		<polygon fill="#CFD727" points="210.8,-149 204.7,-155.1 233.8,-184.3 239.9,-178.1 		"/>
		<path fill="#64C2CA" d="M233.6-90.6L149-175.1c-7.2,7.2-24.9,24.9-26.1,26.1l-3.1,3.1l-3.1-3.1c-1.2-1.2-18.8-18.8-26.1-26.1
			L6.1-90.6L0-96.7l90.7-90.7l3.1,3.1c0,0,18.5,18.5,26.1,26.1c7.5-7.5,26.1-26.1,26.1-26.1l3.1-3.1l90.7,90.7L233.6-90.6z"/>
		<polygon fill="#64C2CA" points="233.8,-120 146,-207.4 152.1,-213.6 239.9,-126.2 		"/>
		<g>
			<path fill="#64C2CA" d="M689.4-382.6l-84.6-84.6c-7.2,7.2-24.9,24.9-26.1,26.1l-3.1,3.1l-3.1-3.1c-1.2-1.2-18.8-18.8-26.1-26.1
				l-84.6,84.6l-6.1-6.1l90.7-90.7l3.1,3.1c0,0,18.5,18.5,26.1,26.1c7.5-7.5,26.1-26.1,26.1-26.1l3.1-3.1l90.7,90.7L689.4-382.6z"/>
		</g>
		<polygon fill="#E1388C" points="315.5,-382.8 283.2,-414.9 315.5,-447.2 321.7,-441 295.5,-414.9 324.8,-385.7 		"/>
		<polygon fill="#E83E30" points="270.2,-382.6 260.8,-385.7 280.2,-403.5 286.1,-397.1 		"/>
		<path fill="#CFD727" d="M347.7-379.6l-3.1-3.1c-1.5-1.5-29.1-29.2-29.1-29.2l6.1-6.1c0,0,18.5,18.5,26.1,26.1l26.1-26.1l6.1,6.1
			L347.7-379.6z"/>
		<polygon fill="#E1388C" points="380,-382.8 370.6,-385.7 400,-414.9 373.8,-441 380,-447.2 412.3,-414.9 		"/>
		<path fill="#64C2CA" d="M461.5-382.6l-84.6-84.6c-7.2,7.2-24.9,24.9-26.1,26.1l-3.1,3.1l-3.1-3.1c-1.2-1.2-18.8-18.8-26.1-26.1
			L234-382.6l-6.1-6.1l90.7-90.7l3.1,3.1c0,0,18.5,18.5,26.1,26.1c7.5-7.5,26.1-26.1,26.1-26.1l3.1-3.1l90.7,90.7L461.5-382.6z"/>
		<polygon fill="#E83E30" points="425.3,-382.6 409.4,-397.1 415.3,-403.5 434.7,-385.7 		"/>
		<g>
			<path fill="#64C2CA" d="M233.6-382.6L149-467.2c-7.2,7.2-24.9,24.9-26.1,26.1l-3.1,3.1l-3.1-3.1c-1.2-1.2-18.8-18.8-26.1-26.1
				L6.1-382.6L0-388.7l90.7-90.7l3.1,3.1c0,0,18.5,18.5,26.1,26.1c7.5-7.5,26.1-26.1,26.1-26.1l3.1-3.1l90.7,90.7L233.6-382.6z"/>
		</g>
	</g>
</pattern>
<rect x="0.8" fill="url(#Nueva_muestra_de_motivo_9)" width="259.2" height="180"/>
</svg>
